# xmcd
#
# Track frame offsets:
#	150
#	11337
#	26247
#	37705
#	51400
#	64445
#	75730
#	90222
#	102892
#	114315
#	131230
#	148190
#	163047
#	175120
#	184420
#	201525
#	210490
#	227890
#
# Disc length: 3209 seconds
#
# Revision: 1
# Processed by: cddbd v1.5.2PL0 Copyright (c) Steve Scherf et al.
# Submitted via: EZCDAudioConverter 2.1.7.1
#
DISCID=fc0c8712
DTITLE=V/A - Acid Drops, Spacedust and Flying Saucers 4/4
DYEAR=2001
DGENRE=
TTITLE0=The Attack - Colour Of My Mind
TTITLE1=Allen Pound's Get Rich - Searchin' In The Wilderness
TTITLE2=Fire - Father's Name Is Dad
TTITLE3=Orange Machine - Dr. Crippen's Waiting Room
TTITLE4=Penny Peeps - Model Village
TTITLE5=The Fairytale - Run And Hide
TTITLE6=Mandrake Paddle Steamer - Strange Walking Man
TTITLE7=Status Quo - When My Mind Is Not Live
TTITLE8=The Poets - In Your Tower
TTITLE9=Sands - Listen To The Sky
TTITLE10=Syd Barrett - Octopus
TTITLE11=The Apple - The Otherside
TTITLE12=The Flies - I'm Not Your Stepping Stone
TTITLE13=Herbal Mixture - Machines
TTITLE14=Tomorrow - Revolution [Phased Version]
TTITLE15=The Sorrows - You've Got What I Want
TTITLE16=The Koobas - Royston Rose
TTITLE17=Sam Gopal - Escalator
EXTD=
EXTT0=
EXTT1=
EXTT2=
EXTT3=
EXTT4=
EXTT5=
EXTT6=
EXTT7=
EXTT8=
EXTT9=
EXTT10=
EXTT11=
EXTT12=
EXTT13=
EXTT14=
EXTT15=
EXTT16=
EXTT17=
PLAYORDER=
